<svg id="visual" viewBox="0 0 900 600" width="900" height="600" xmlns="http://www.w3.org/2000/svg" xmlns:xlink="http://www.w3.org/1999/xlink" version="1.1"><path d="M0 37L7.5 60C15 83 30 129 45 154.2C60 179.3 75 183.7 90 166C105 148.3 120 108.7 135 83.2C150 57.7 165 46.3 180 59.3C195 72.3 210 109.7 225 107.2C240 104.7 255 62.3 270 53.5C285 44.7 300 69.3 315 94.3C330 119.3 345 144.7 360 139.8C375 135 390 100 405 106.3C420 112.7 435 160.3 450 179.7C465 199 480 190 495 186.8C510 183.7 525 186.3 540 196.8C555 207.3 570 225.7 585 241.2C600 256.7 615 269.3 630 274C645 278.7 660 275.3 675 255.3C690 235.3 705 198.7 720 164.2C735 129.7 750 97.3 765 102C780 106.7 795 148.3 810 140.2C825 132 840 74 855 75.5C870 77 885 138 892.5 168.5L900 199L900 0L892.5 0C885 0 870 0 855 0C840 0 825 0 810 0C795 0 780 0 765 0C750 0 735 0 720 0C705 0 690 0 675 0C660 0 645 0 630 0C615 0 600 0 585 0C570 0 555 0 540 0C525 0 510 0 495 0C480 0 465 0 450 0C435 0 420 0 405 0C390 0 375 0 360 0C345 0 330 0 315 0C300 0 285 0 270 0C255 0 240 0 225 0C210 0 195 0 180 0C165 0 150 0 135 0C120 0 105 0 90 0C75 0 60 0 45 0C30 0 15 0 7.5 0L0 0Z" fill="#ffffff"></path></svg>